<?xml version="1.0" encoding="utf-8"?>
<!-- Generator: Adobe Illustrator 23.0.1, SVG Export Plug-In . SVG Version: 6.00 Build 0)  -->
<svg version="1.1" id="Layer_1" xmlns="http://www.w3.org/2000/svg" xmlns:xlink="http://www.w3.org/1999/xlink" x="0px" y="0px"
	 viewBox="0 0 1125 31" style="enable-background:new 0 0 1125 31;" xml:space="preserve">
<style type="text/css">
	.st0{fill:none;stroke:#137E40;stroke-width:2;stroke-dasharray:5.59,5.59;}
	.st1{fill:none;}
	.st2{fill:#5CBFAB;}
	.st3{fill:#137E40;}
	.st4{fill:#97D5C9;}
</style>
<path class="st0" d="M1,15.3c171.8,0-90.2,0.8,530.2,0.6c360.3-0.1,409.7-0.1,409.7-0.1l183.1,0"/>
<polygon class="st1" points="128.3,2.7 145.7,17.5 128.3,29.2 110.9,14.5 "/>
<polygon class="st1" points="410.4,2.6 427.8,17.4 410.4,29.1 393,14.3 "/>
<polygon class="st1" points="944.4,2.5 961.8,17.2 944.4,29 927,14.2 "/>
<polygon class="st1" points="685,2.5 702.8,16.9 685.6,29 667.9,14.6 "/>
<g>
	<polygon class="st2" points="128.4,16 125.9,19.9 126.3,14 140.9,11.5 	"/>
	<polygon class="st2" points="125.9,19.9 125.9,19.9 125.9,19.9 	"/>
	<polygon class="st3" points="126.3,14 120.9,11.7 140.9,11.5 	"/>
	<polygon class="st4" points="130.3,18.2 125.9,19.9 125.9,19.9 125.9,19.9 125.9,19.9 128.4,16 	"/>
	<polygon class="st3" points="134.3,22.9 128.4,16 140.9,11.5 	"/>
</g>
<g>
	<polygon class="st2" points="404,16.6 401.5,20.5 401.9,14.7 416.5,12.1 	"/>
	<polygon class="st2" points="401.5,20.6 401.5,20.6 401.5,20.6 	"/>
	<polygon class="st3" points="401.9,14.7 396.5,12.3 416.5,12.1 	"/>
	<polygon class="st4" points="405.9,18.9 401.5,20.6 401.5,20.6 401.5,20.6 401.5,20.5 404,16.6 	"/>
	<polygon class="st3" points="409.9,23.6 404,16.6 416.5,12.1 	"/>
</g>
<g>
	<polygon class="st2" points="677.9,15.6 675.4,19.5 675.8,13.7 690.4,11.1 	"/>
	<polygon class="st2" points="675.4,19.6 675.4,19.5 675.4,19.5 	"/>
	<polygon class="st3" points="675.8,13.7 670.4,11.3 690.4,11.1 	"/>
	<polygon class="st4" points="679.8,17.8 675.4,19.5 675.4,19.5 675.4,19.6 675.4,19.5 677.9,15.6 	"/>
	<polygon class="st3" points="683.8,22.6 677.9,15.6 690.4,11.1 	"/>
</g>
<g>
	<polygon class="st2" points="957.9,14.5 955.4,18.4 955.8,12.5 970.4,10 	"/>
	<polygon class="st2" points="955.4,18.4 955.4,18.4 955.4,18.4 	"/>
	<polygon class="st3" points="955.8,12.5 950.4,10.2 970.4,10 	"/>
	<polygon class="st4" points="959.8,16.7 955.4,18.4 955.4,18.4 955.3,18.4 955.4,18.4 957.9,14.5 	"/>
	<polygon class="st3" points="963.8,21.4 957.9,14.5 970.4,10 	"/>
</g>
</svg>
