<?xml version="1.0" encoding="utf-8"?>
<!-- Generator: Adobe Illustrator 23.0.1, SVG Export Plug-In . SVG Version: 6.00 Build 0)  -->
<svg version="1.1" id="Layer_1" xmlns="http://www.w3.org/2000/svg" xmlns:xlink="http://www.w3.org/1999/xlink" x="0px" y="0px"
	 viewBox="0 0 1059 185" style="enable-background:new 0 0 1059 185;" xml:space="preserve">
<style type="text/css">
	.st0{fill:none;stroke:#137E40;stroke-width:2;stroke-dasharray:5.59,5.59;}
	.st1{fill:none;}
	.st2{fill:#5CBFAB;}
	.st3{fill:#137E40;}
	.st4{fill:#97D5C9;}
</style>
<path class="st0" d="M2,110.6c0,0,0,0,207.5,1.1 M2,110.6l207.5,1.1 M2,110.6c10.5,19.1,44.9,57.9,98.5,57.9c64.5,0,95-37.2,109-56
	 M638.5,112.2c-38.4-0.1-171.8,0.1-204.5,0 M638.5,112.2c-29.7-44.9-112.1-107.8-204.5,0 M638.5,112.2c412.7,1,245.4,1.6,208.5,1.8
	 M840.5,114c-77,49-219,112-406.5-1.8 M840.5,114c0,0,2.5,0,6.5,0 M840.5,114h107.8H1056c-95.5-101-476.5-171.5-622-1.8 M434,112.2
	c-91-0.2-164.8-0.4-224.5-0.6 M847,114c10.5,19.1,44.9,57.9,98.5,57.9c64.5,0,95-37.2,109-56"/>
<polygon class="st1" points="546.3,65.4 528,51.8 544.6,39 562.9,52.6 "/>
<polygon class="st1" points="795.5,27.4 779,11.8 797,1 813.5,16.7 "/>
<polygon class="st1" points="98.8,98 115.6,113.5 97.8,124.5 81,109 "/>
<polygon class="st1" points="325.2,99 342.7,113.6 325.4,125.5 307.9,110.9 "/>
<polygon class="st1" points="743.3,99 760.8,113.6 743.5,125.5 726,110.9 "/>
<polygon class="st1" points="540.8,99 557.6,114.5 539.8,125.5 523,110 "/>
<polygon class="st1" points="952.8,101 969.6,116.5 951.8,127.5 935,112 "/>
<polygon class="st1" points="105.3,180.5 86.9,167 103.3,154 121.8,167.5 "/>
<polygon class="st1" points="954.9,184.4 936,171.7 952,158.1 970.9,170.8 "/>
<polygon class="st1" points="731.2,177.1 710,168.7 722.7,152 743.9,160.4 "/>
<g>
	<polygon class="st2" points="93.1,111 90.6,114.9 91,109.1 105.7,106.6 	"/>
	<polygon class="st2" points="90.6,115 90.6,115 90.6,115 	"/>
	<polygon class="st3" points="91,109.1 85.7,106.7 105.7,106.6 	"/>
	<polygon class="st4" points="95.1,113.3 90.6,115 90.6,115 90.6,115 90.6,114.9 93.1,111 	"/>
	<polygon class="st3" points="99,118 93.1,111 105.7,106.6 	"/>
</g>
<g>
	<polygon class="st2" points="98.2,170.2 100.7,174.1 100.3,168.2 85.7,165.7 	"/>
	<polygon class="st2" points="100.7,174.1 100.7,174.1 100.7,174.1 	"/>
	<polygon class="st3" points="100.3,168.2 105.7,165.8 85.7,165.7 	"/>
	<polygon class="st4" points="96.3,172.4 100.7,174.1 100.7,174.1 100.7,174.1 100.7,174.1 98.2,170.2 	"/>
	<polygon class="st3" points="92.3,177.2 98.2,170.2 85.7,165.7 	"/>
</g>
<g>
	<polygon class="st2" points="310.1,112.7 307.5,116.7 308,110.8 322.6,108.3 	"/>
	<polygon class="st2" points="307.5,116.7 307.5,116.7 307.6,116.7 	"/>
	<polygon class="st3" points="308,110.8 302.6,108.4 322.6,108.3 	"/>
	<polygon class="st4" points="312,115 307.6,116.7 307.5,116.7 307.5,116.7 307.5,116.7 310.1,112.7 	"/>
	<polygon class="st3" points="316,119.7 310.1,112.7 322.6,108.3 	"/>
</g>
<g>
	<polygon class="st2" points="531.8,111.8 529.3,115.8 529.7,109.9 544.4,107.4 	"/>
	<polygon class="st2" points="529.3,115.8 529.3,115.8 529.3,115.8 	"/>
	<polygon class="st3" points="529.7,109.9 524.4,107.5 544.4,107.4 	"/>
	<polygon class="st4" points="533.7,114.1 529.3,115.8 529.3,115.8 529.3,115.8 529.3,115.8 531.8,111.8 	"/>
	<polygon class="st3" points="537.7,118.8 531.8,111.8 544.4,107.4 	"/>
</g>
<g>
	<polygon class="st2" points="724.4,112.8 721.9,116.7 722.3,110.9 737,108.4 	"/>
	<polygon class="st2" points="721.9,116.8 721.9,116.8 721.9,116.8 	"/>
	<polygon class="st3" points="722.3,110.9 717,108.5 737,108.4 	"/>
	<polygon class="st4" points="726.3,115.1 721.9,116.8 721.9,116.8 721.9,116.8 721.9,116.7 724.4,112.8 	"/>
	<polygon class="st3" points="730.3,119.8 724.4,112.8 737,108.4 	"/>
</g>
<g>
	<polygon class="st2" points="945,113.8 942.5,117.7 942.9,111.9 957.6,109.4 	"/>
	<polygon class="st2" points="942.5,117.8 942.5,117.8 942.5,117.8 	"/>
	<polygon class="st3" points="942.9,111.9 937.6,109.5 957.6,109.4 	"/>
	<polygon class="st4" points="946.9,116.1 942.5,117.8 942.5,117.8 942.5,117.8 942.5,117.7 945,113.8 	"/>
	<polygon class="st3" points="950.9,120.8 945,113.8 957.6,109.4 	"/>
</g>
<g>
	<polygon class="st2" points="952,172.7 954.5,176.6 954.1,170.8 939.5,168.3 	"/>
	<polygon class="st2" points="954.5,176.6 954.5,176.6 954.5,176.6 	"/>
	<polygon class="st3" points="954.1,170.8 959.5,168.4 939.5,168.3 	"/>
	<polygon class="st4" points="950.1,175 954.5,176.6 954.5,176.6 954.6,176.6 954.5,176.6 952,172.7 	"/>
	<polygon class="st3" points="946.1,179.7 952,172.7 939.5,168.3 	"/>
</g>
<g>
	<polygon class="st2" points="641,176.2 643.5,180.1 643.1,174.2 628.5,171.7 	"/>
	<polygon class="st2" points="643.5,180.1 643.5,180.1 643.5,180.1 	"/>
	<polygon class="st3" points="643.1,174.2 648.5,171.8 628.5,171.7 	"/>
	<polygon class="st4" points="639.1,178.4 643.5,180.1 643.5,180.1 643.6,180.1 643.5,180.1 641,176.2 	"/>
	<polygon class="st3" points="635.1,183.2 641,176.2 628.5,171.7 	"/>
</g>
<g>
	<polygon class="st2" points="552.7,55.1 555.2,59.1 554.8,53.2 540.1,50.7 	"/>
	<polygon class="st2" points="555.2,59.1 555.2,59.1 555.2,59.1 	"/>
	<polygon class="st3" points="554.8,53.2 560.1,50.8 540.1,50.7 	"/>
	<polygon class="st4" points="550.7,57.4 555.2,59.1 555.2,59.1 555.2,59.1 555.2,59.1 552.7,55.1 	"/>
	<polygon class="st3" points="546.8,62.2 552.7,55.1 540.1,50.7 	"/>
</g>
<g>
	<polygon class="st2" points="751.1,10.9 753.7,14.9 753.2,9 738.6,6.5 	"/>
	<polygon class="st2" points="753.7,14.9 753.7,14.9 753.6,14.9 	"/>
	<polygon class="st3" points="753.2,9 758.6,6.6 738.6,6.5 	"/>
	<polygon class="st4" points="749.2,13.2 753.6,14.9 753.7,14.9 753.7,14.9 753.7,14.9 751.1,10.9 	"/>
	<polygon class="st3" points="745.2,17.9 751.1,10.9 738.6,6.5 	"/>
</g>
</svg>
